<svg id="Layer_1" data-name="Layer 1" xmlns="http://www.w3.org/2000/svg" viewBox="0 0 145.61 145.61"><defs><style>.cls-1{fill:#39b897;}.cls-2{fill:#fff;stroke:#fff;stroke-miterlimit:10;stroke-width:3px;}</style></defs><circle class="cls-1" cx="72.81" cy="72.81" r="72.81"/><path class="cls-2" d="M287.46,277.23l-.21.8a4.18,4.18,0,0,1-1.14,1.86l-1.27,1.26-3.16,3.21-3,3.07q-1.56,1.6-3.14,3.19l-3.08,3.13q-1.53,1.58-3.08,3.13L266.27,300l-3.12,3.16c-1,1-2.07,2.05-3,3.13a4.51,4.51,0,0,1-2.4,1.47,4.13,4.13,0,0,1-4.08-1.18,4.45,4.45,0,0,1-.08-6.23c.59-.63,1.19-1.24,1.79-1.85,1.47-1.49,2.94-3,4.4-4.46l3.09-3.13,3.08-3.13,3.09-3.15c1-1,2.05-2.08,3.06-3.12.13-.13.23-.27.38-.45H213a4.28,4.28,0,0,1-4.07-2.45,4.46,4.46,0,0,1,4.07-6.46q29.55,0,59.1,0h.39a4.87,4.87,0,0,0-.39-.45c-.36-.38-.74-.75-1.11-1.12l-4.74-4.79-3.08-3.13L260,259.57l-3.1-3.15c-1-1-2.05-2.07-3.06-3.11a5.07,5.07,0,0,1-1.48-2.61,4.61,4.61,0,0,1,.81-3.52,4.37,4.37,0,0,1,6.65-.48l3.1,3.15,2.67,2.72,3.49,3.54,3.06,3.12,3.1,3.15,3.08,3.13c1,1.06,2.09,2.12,3.13,3.19l3,3.09,1.69,1.73a4.27,4.27,0,0,1,1.19,2.43s0,.08,0,.12Z" transform="translate(-175.13 -203.85)"/></svg>