<svg xmlns="http://www.w3.org/2000/svg" width="15" height="13" viewBox="0 0 15 13">
    <defs>
        <filter id="hj48vvz1ba">
            <feColorMatrix in="SourceGraphic" values="0 0 0 0 0.278431 0 0 0 0 0.721569 0 0 0 0 0.588235 0 0 0 1.000000 0"/>
        </filter>
    </defs>
    <g fill="none" fill-rule="evenodd">
        <g filter="url(#hj48vvz1ba)" transform="translate(-215 -192)">
            <g>
                <path fill="#000" fill-rule="nonzero" d="M9.698 7.106c0 1.304-1.061 2.365-2.365 2.365-1.305 0-2.365-1.06-2.365-2.365 0-1.304 1.06-2.365 2.365-2.365 1.304 0 2.365 1.061 2.365 2.365zm4.967-3.358v6.717c0 .896-.726 1.622-1.621 1.622H1.622C.726 12.087 0 11.36 0 10.465V3.748c0-.896.726-1.622 1.622-1.622h1.994v-.561c0-.784.635-1.42 1.42-1.42H9.63c.784 0 1.419.636 1.419 1.42v.56h1.995c.895 0 1.621.727 1.621 1.623zm-3.751 3.358c0-1.975-1.607-3.581-3.581-3.581-1.975 0-3.581 1.606-3.581 3.58 0 1.976 1.606 3.582 3.58 3.582 1.975 0 3.582-1.606 3.582-3.581z" transform="translate(215 192)"/>
            </g>
        </g>
    </g>
</svg>
