<svg xmlns="http://www.w3.org/2000/svg" width="24" height="24" viewBox="0 0 24 24">
    <g fill="none" fill-rule="evenodd">
        <g>
            <g transform="translate(-860 -706) translate(860 706)">
                <path d="M0 0H24V24H0z"/>
                <rect width="11" height="12" x="4" y="6" fill="#797B7D" rx="1"/>
                <path fill="#FFF" d="M12.682 10H6.318C6.143 10 6 9.776 6 9.5s.143-.5.318-.5h6.364c.175 0 .318.224.318.5s-.143.5-.318.5zM10.643 12H6.357C6.16 12 6 11.776 6 11.5s.16-.5.357-.5h4.286c.197 0 .357.224.357.5s-.16.5-.357.5zM10.643 14H6.357C6.16 14 6 13.776 6 13.5s.16-.5.357-.5h4.286c.197 0 .357.224.357.5s-.16.5-.357.5z"/>
                <path fill="#797B7D" d="M12 8H8c-.551 0-1-.449-1-1V5.667c0-.184.15-.334.333-.334h1.034C8.52 4.573 9.195 4 10 4s1.479.573 1.633 1.333h1.034c.184 0 .333.15.333.334V7c0 .551-.449 1-1 1z"/>
                <path fill="#FFF" fill-rule="nonzero" d="M7 6.5v1.125c0 .206.16.375.357.375h4.286c.196 0 .357-.169.357-.375V6.5h-1.071c-.198 0-.358-.168-.358-.375 0-.62-.48-1.125-1.071-1.125-.59 0-1.071.505-1.071 1.125 0 .207-.16.375-.358.375H7z"/>
                <path fill="#797B7D" stroke="#FFF" d="M16 20c-.044 0-.088-.008-.13-.025-.158-.065-3.87-1.612-3.87-4.773v-2.687c0-.138.091-.26.227-.304l3.666-1.194c.07-.023.145-.023.214 0l3.666 1.194c.136.043.227.166.227.304v2.687c0 3.161-3.712 4.708-3.87 4.773-.042.017-.086.025-.13.025z"/>
                <path fill="#FFF" fill-rule="nonzero" d="M15.538 17h-.016c-.088-.006-.169-.05-.224-.125l-1.23-1.667c-.106-.144-.086-.353.047-.469.135-.114.328-.09.433.052l1.016 1.376 1.91-2.07c.12-.13.316-.13.436 0s.12.342 0 .472l-2.154 2.333c-.058.063-.136.098-.218.098z"/>
            </g>
        </g>
    </g>
</svg>
