<svg xmlns="http://www.w3.org/2000/svg" width="12" height="12" viewBox="0 0 12 12">
    <g fill="none" fill-rule="evenodd">
        <g fill="#DF002E" fill-rule="nonzero">
            <g>
                <g>
                    <g>
                        <path d="M13.121 2.879c.283.283.283.741 0 1.024L9.024 8l4.097 4.097c.283.283.283.741 0 1.024-.283.283-.741.283-1.024 0L8 9.024 3.903 13.12c-.283.283-.741.283-1.024 0-.283-.283-.283-.741 0-1.024L6.976 8 2.879 3.903c-.283-.283-.283-.741 0-1.024.283-.283.741-.283 1.024 0L8 6.976l4.097-4.097c.283-.283.741-.283 1.024 0z" transform="translate(-74 -534) translate(20 525) translate(10) translate(42 7)"/>
                    </g>
                </g>
            </g>
        </g>
    </g>
</svg>
