<svg xmlns="http://www.w3.org/2000/svg" width="24" height="24" viewBox="0 0 24 24">
    <g fill="none" fill-rule="evenodd">
        <g>
            <g>
                <path d="M0 0H24V24H0z" transform="translate(-374 -598) translate(374 598)"/>
                <path fill="#202326" fill-rule="nonzero" d="M19.682 4.318c.424.424.424 1.112 0 1.537L13.536 12l6.146 6.145c.424.425.424 1.113 0 1.537-.424.424-1.112.424-1.537 0L12 13.536l-6.145 6.146c-.425.424-1.113.424-1.537 0-.424-.424-.424-1.112 0-1.537L10.464 12 4.318 5.855c-.424-.425-.424-1.113 0-1.537.424-.424 1.112-.424 1.537 0L12 10.464l6.145-6.146c.425-.424 1.113-.424 1.537 0z" transform="translate(-374 -598) translate(374 598)"/>
            </g>
        </g>
    </g>
</svg>
