<svg xmlns="http://www.w3.org/2000/svg" width="24" height="24" viewBox="0 0 24 24">
    <g fill="none" fill-rule="evenodd">
        <g>
            <g>
                <path d="M0 0H24V24H0z" transform="translate(-897 -706) translate(897 706)"/>
                <path fill="#797B7D" d="M17.098 9.57c.28 0 .5.225.477.488l-.852 9.958c-.048.556-.539.984-1.128.984h-7.19c-.59 0-1.08-.428-1.128-.984l-.852-9.958c-.023-.263.197-.488.477-.488zM8.77 10.739c-.3.017-.528.26-.51.544l.535 8.174c.018.272.257.482.542.482l.034-.001c.299-.018.527-.26.508-.544l-.534-8.175c-.018-.283-.277-.497-.575-.48zm3.236-.001c-.3 0-.543.23-.543.513v8.175c0 .283.243.513.543.513.3 0 .543-.23.543-.513V11.25c0-.284-.243-.513-.543-.513zm3.223 0c-.3-.016-.557.2-.574.483l-.51 8.175c-.018.282.21.525.51.542h.032c.286 0 .525-.21.542-.482l.51-8.175c.018-.283-.21-.526-.51-.542zm2.736-4.208c.297 0 .56.18.655.446l.357 1.01c.068.195-.021.394-.188.493-.068.04-.149.065-.237.065H5.448c-.088 0-.169-.025-.237-.065-.167-.099-.256-.298-.188-.493l.357-1.01c.094-.266.358-.446.655-.446zM13.575 4c.56 0 1.015.43 1.015.96v.544h-1.086v-.478h-3.008v.478H9.41V4.96c0-.529.455-.959 1.015-.959z" transform="translate(-897 -706) translate(897 706)"/>
            </g>
        </g>
    </g>
</svg>
