<?xml version="1.0" encoding="UTF-8"?>
<svg width="12px" height="12px" viewBox="0 0 12 12" version="1.1" xmlns="http://www.w3.org/2000/svg" xmlns:xlink="http://www.w3.org/1999/xlink">
    <title>4B42E201-DB49-4E32-A490-12861E2B9CCA</title>
    <g id="browser" stroke="none" stroke-width="1" fill="none" fill-rule="evenodd">
        <g id="browser_Shopping_search" transform="translate(-74.000000, -208.000000)" fill="#DF002E" fill-rule="nonzero">
            <g id="tag" transform="translate(20.000000, 199.000000)">
                <g id="input/sort-by" transform="translate(10.000000, 0.000000)">
                    <g id="icon/close" transform="translate(42.000000, 7.000000)">
                        <path d="M13.121206,2.87879397 C13.4040424,3.16163037 13.4040424,3.62019877 13.121206,3.90303517 L9.02366667,7.99966667 L13.121206,12.0969648 C13.4040424,12.3798012 13.4040424,12.8383696 13.121206,13.121206 C12.8383696,13.4040424 12.3798012,13.4040424 12.0969648,13.121206 L7.99966667,9.02366667 L3.90303517,13.121206 C3.62019877,13.4040424 3.16163037,13.4040424 2.87879397,13.121206 C2.59595757,12.8383696 2.59595757,12.3798012 2.87879397,12.0969648 L6.97566667,7.99966667 L2.87879397,3.90303517 C2.59595757,3.62019877 2.59595757,3.16163037 2.87879397,2.87879397 C3.16163037,2.59595757 3.62019877,2.59595757 3.90303517,2.87879397 L7.99966667,6.97566667 L12.0969648,2.87879397 C12.3798012,2.59595757 12.8383696,2.59595757 13.121206,2.87879397 Z" id="Combined-Shape"></path>
                    </g>
                </g>
            </g>
        </g>
    </g>
</svg>