<svg xmlns="http://www.w3.org/2000/svg" width="18" height="20" viewBox="0 0 18 20">
    <g fill="none" fill-rule="evenodd">
        <g fill="#47B896">
            <g>
                <path d="M6.866 15.444V22H3v-6.556h3.866zm14.134 0V22h-3.866v-6.556H21zM15.704 2C18.629 2 21 4.423 21 7.412v6.284h-3.866V9.878c0-.997-.79-1.804-1.766-1.804H8.632c-.975 0-1.766.807-1.766 1.804v3.818H3V7.412C3 4.423 5.371 2 8.296 2zM11.1 4.135H9.336v1.804H11.1V4.135zm3.563 0H12.9v1.804h1.765V4.135z" transform="translate(-784 -748) translate(781 746)"/>
            </g>
        </g>
    </g>
</svg>
