<svg xmlns="http://www.w3.org/2000/svg" width="12" height="11" viewBox="0 0 12 11">
    <g fill="none" fill-rule="evenodd">
        <g fill="#202326" fill-rule="nonzero">
            <path d="M583.766 1034c.863 0 1.675.347 2.286.977s.948 1.469.948 2.36c0 .893-.337 1.731-.948 2.361L581 1044.91l-5.052-5.21c-.611-.63-.948-1.47-.948-2.361 0-.892.337-1.73.948-2.361.61-.63 1.423-.977 2.286-.977s1.675.347 2.286.977l.48.495.48-.495c.61-.63 1.423-.977 2.286-.977zm-2.766 2.997l-.823 1.194-1.36.44.85 1.18-.015 1.467 1.348-.467 1.348.467-.015-1.467.85-1.18-1.36-.44-.823-1.194zm0 1.635l.256.371.417.135-.26.362.004.453-.417-.145-.417.145.004-.453-.26-.362.417-.135.256-.37z" transform="translate(-575 -1034)"/>
        </g>
    </g>
</svg>
