<svg xmlns="http://www.w3.org/2000/svg" width="24" height="24" viewBox="0 0 24 24">
    <g fill="none" fill-rule="evenodd">
        <g>
            <g>
                <path d="M0 0H24V24H0z" transform="translate(-819 -867) translate(819 867)"/>
                <path fill="#202326" fill-rule="nonzero" d="M20.42 10.586c.773.78.773 2.047 0 2.828-.773.781-2.026.781-2.799 0-.773-.78-.773-2.047 0-2.828.773-.781 2.026-.781 2.8 0zm-7.52 0c.772.78.772 2.047 0 2.828-.773.781-2.027.781-2.8 0-.772-.78-.772-2.047 0-2.828.773-.781 2.027-.781 2.8 0zm-7.521 0c.773.78.773 2.047 0 2.828-.773.781-2.026.781-2.8 0-.772-.78-.772-2.047 0-2.828.774-.781 2.027-.781 2.8 0z" transform="translate(-819 -867) translate(819 867)"/>
            </g>
        </g>
    </g>
</svg>
