<svg xmlns="http://www.w3.org/2000/svg" width="24" height="24" viewBox="0 0 24 24">
    <g fill="none" fill-rule="evenodd">
        <g>
            <g>
                <path d="M0 0H24V24H0z" transform="translate(-510 -867) translate(510 867)"/>
                <path fill="#47B896" d="M12 6c1.603 0 3.11.624 4.243 1.757C17.376 8.891 18 10.397 18 12c0 1.603-.624 3.11-1.757 4.243C15.109 17.376 13.603 18 12 18c-1.603 0-3.11-.624-4.243-1.757C6.624 15.109 6 13.603 6 12c0-1.603.624-3.11 1.757-4.243C8.891 6.624 10.397 6 12 6zm-.044 1.178h-.022c-2.621.036-4.744 2.173-4.756 4.8V12c0 2.659 2.163 4.822 4.822 4.822 2.66 0 4.822-2.163 4.822-4.822 0-2.659-2.163-4.822-4.822-4.822h-.05zm.35.721c1.986.147 3.584 1.71 3.785 3.68h-.428c-.196 0-.355.16-.355.356 0 .196.159.355.355.355h.439c-.141 2.015-1.74 3.634-3.747 3.807v-.45c0-.196-.159-.355-.355-.355-.196 0-.355.159-.355.355v.45c-1.99-.171-3.58-1.766-3.743-3.758h.386c.196 0 .355-.16.355-.355 0-.196-.159-.355-.355-.355h-.383c.176-1.961 1.734-3.53 3.69-3.721v.364c0 .196.16.355.356.355.196 0 .355-.16.355-.355zm-2.12 1.785c-.138-.138-.363-.138-.502 0-.138.139-.138.364 0 .502l2.065 2.065c.067.067.157.104.251.104s.184-.037.251-.104l1.186-1.186c.139-.139.139-.364 0-.502-.138-.139-.363-.139-.502 0l-.935.935z" transform="translate(-510 -867) translate(510 867)"/>
            </g>
        </g>
    </g>
</svg>
