<svg xmlns="http://www.w3.org/2000/svg" width="24" height="24" viewBox="0 0 24 24">
    <defs>
        <filter id="ql6p3iyhva">
            <feColorMatrix in="SourceGraphic" values="0 0 0 0 0.278431 0 0 0 0 0.721569 0 0 0 0 0.588235 0 0 0 1.000000 0"/>
        </filter>
    </defs>
    <g fill="none" fill-rule="evenodd">
        <g>
            <g>
                <path d="M0 0H24V24H0z" transform="translate(-475 -867) translate(475 867)"/>
                <g filter="url(#ql6p3iyhva)" transform="translate(-475 -867) translate(475 867)">
                    <g fill="#000" fill-rule="nonzero">
                        <path d="M6.247 8.775c-.97 0-1.757.786-1.757 1.756s.787 1.756 1.757 1.756c.97 0 1.756-.786 1.756-1.756s-.786-1.756-1.756-1.756zm0 2.52c-.422 0-.764-.342-.764-.764s.342-.763.764-.763c.421 0 .763.341.763.763s-.342.764-.763.764zM15.508 8.775c-.97 0-1.756.786-1.756 1.756s.786 1.756 1.756 1.756 1.756-.786 1.756-1.756-.785-1.756-1.756-1.756zm0 2.52c-.422 0-.763-.342-.763-.764s.341-.763.763-.763.764.341.764.763-.342.764-.764.764zM8.223 3.379c0 .246-.202.447-.448.447H1.601c-.246 0-.447-.201-.447-.447V3.11c0-.246.2-.447.447-.447h6.174c.246 0 .448.201.448.447v.269z" transform="translate(2 6)"/>
                        <path d="M18.95 5.998c-.644-.167-1.013-.272-1.266-.76l-.845-1.713c-.253-.488-.91-.888-1.46-.888h-1.157s-.155.004-.155-.153V1.048c0-.556-.315-1.012-.985-1.012H3.656c-.959 0-1.414.456-1.414 1.012v.9s0 .268.259.268h5.274c.494 0 .895.401.895.894v.269c0 .493-.401.895-.895.895H2.501s-.26-.022-.26.258v.31c0 .245.338.245.338.245h3.55c.494 0 .895.402.895.895v.268c0 .494-.401.895-.895.895H2.635s-.393-.007-.393.306v2.174c0 .557.455 1.012 1.012 1.012h.559c.126 0 .145-.07.145-.106 0-1.262 1.027-2.288 2.289-2.288 1.262 0 2.288 1.026 2.288 2.288 0 .036-.01.106.087.106h4.512c.089 0 .085-.075.085-.106 0-1.262 1.027-2.288 2.29-2.288 1.261 0 2.288 1.026 2.288 2.288 0 .036-.001.106.055.106h1.137c.55 0 1-.45 1-1v-1.9c0-1.6-.505-1.6-1.04-1.739zm-1.904-.089H14.2c-.118 0-.133-.114-.133-.114V3.424s-.007-.091.144-.091h.812c.49 0 1.074.355 1.3.79l.752 1.523c.031.061.065.116.102.165.026.035-.019.098-.13.098z" transform="translate(2 6)"/>
                        <path d="M6.577 6.25c0 .246-.202.448-.448.448H.447C.201 6.698 0 6.496 0 6.25v-.268c0-.246.201-.447.447-.447H6.13c.247 0 .448.2.448.447v.268z" transform="translate(2 6)"/>
                    </g>
                </g>
            </g>
        </g>
    </g>
</svg>
