<svg xmlns="http://www.w3.org/2000/svg" width="16" height="16" viewBox="0 0 16 16">
    <defs>
        <filter id="t41k2cp94a">
            <feColorMatrix in="SourceGraphic" values="0 0 0 0 0.125490 0 0 0 0 0.137255 0 0 0 0 0.149020 0 0 0 1.000000 0"/>
        </filter>
    </defs>
    <g fill="none" fill-rule="evenodd">
        <g filter="url(#t41k2cp94a)" transform="translate(-30 -359)">
            <g fill="#797B7D" fill-rule="nonzero">
                <path d="M15.644 6.644l-1.872-.46c-.103-.328-.235-.647-.394-.956l.956-1.594c.113-.187.085-.421-.065-.571L12.937 1.73c-.15-.15-.384-.178-.571-.065l-1.594.956c-.31-.16-.628-.29-.956-.394L9.366.356C9.309.15 9.122 0 8.906 0H7.031c-.215 0-.403.15-.46.356l-.45 1.872c-.327.103-.646.234-.955.394l-1.594-.956C3.384 1.553 3.15 1.58 3 1.73L1.669 3.062c-.15.15-.178.385-.066.572l.956 1.594c-.159.31-.29.628-.393.956l-1.81.46C.15 6.69 0 6.878 0 7.094v1.875c0 .215.15.403.356.45l1.81.46c.103.327.234.646.393.955l-.956 1.594c-.112.188-.084.422.066.572L3 14.331c.15.15.384.178.572.066l1.594-.956c.309.159.628.29.956.393l.45 1.81c.056.206.244.356.46.356h1.874c.216 0 .403-.15.46-.356l.45-1.81c.328-.103.646-.234.956-.393l1.594.956c.187.112.421.084.572-.066L14.268 13c.15-.15.179-.384.066-.572l-.956-1.594c.16-.309.29-.628.394-.956l1.872-.46c.206-.046.356-.234.356-.45V7.095c0-.216-.15-.403-.356-.45zm-7.675 3.731c-1.294 0-2.344-1.05-2.344-2.344 0-1.294 1.05-2.344 2.344-2.344 1.293 0 2.343 1.05 2.343 2.344 0 1.294-1.05 2.344-2.343 2.344z" transform="translate(30 359)"/>
            </g>
        </g>
    </g>
</svg>
