<svg xmlns="http://www.w3.org/2000/svg" width="24" height="24" viewBox="0 0 24 24">
    <defs>
        <filter id="4pno67p48a">
            <feColorMatrix in="SourceGraphic" values="0 0 0 0 0.233896 0 0 0 0 0.799507 0 0 0 0 0.629323 0 0 0 1.000000 0"/>
        </filter>
    </defs>
    <g fill="none" fill-rule="evenodd">
        <g>
            <g filter="url(#4pno67p48a)" transform="translate(-779 -1028) translate(779 1028)">
                <path d="M0 0H24V24H0z"/>
                <g fill="#000" fill-rule="nonzero">
                    <path d="M14.688 0c-2.37 0-3.89 1.641-4.688 3.12C9.203 1.64 7.682 0 5.312 0 2.307 0 0 2.44 0 5.675c0 .844.169 1.623.48 2.372h4.47l1.01-2.02c.2-.397.85-.397 1.049 0l1.82 3.64.647-1.296c.199-.397.849-.397 1.048 0l.648 1.295 1.82-3.639c.199-.397.849-.397 1.048 0l1.01 2.02h4.47c.311-.749.48-1.528.48-2.372C20 2.439 17.694 0 14.687 0z" transform="translate(2 3)"/>
                    <path d="M14.688 9.219c-.223 0-.425-.126-.525-.324l-.647-1.296-1.82 3.64c-.1.198-.302.323-.524.323-.222 0-.425-.125-.524-.323L10 9.943l-.648 1.296c-.199.397-.849.397-1.048 0l-1.82-3.64-.647 1.296c-.1.198-.302.324-.524.324H1.095c1.206 1.897 3.378 3.7 6.095 5.992.763.644 1.574 1.33 2.426 2.068.11.095.247.143.384.143s.273-.048.384-.143c.852-.739 1.663-1.424 2.426-2.068 2.717-2.293 4.889-4.095 6.095-5.992h-4.218z" transform="translate(2 3)"/>
                </g>
            </g>
        </g>
    </g>
</svg>
