<svg xmlns="http://www.w3.org/2000/svg" width="24" height="24" viewBox="0 0 24 24">
    <g fill="none" fill-rule="evenodd">
        <g fill="#000" fill-rule="nonzero" stroke="#000" stroke-width=".5">
            <g>
                <g>
                    <path d="M2.191 8.379v6.909c0 .415-.161.806-.455 1.1-.538.537-.834 1.252-.834 2.012v1.022h5.221C6.423 20.892 7.725 22 9.281 22c1.557 0 2.859-1.109 3.158-2.578h5.221V18.4c0-.76-.296-1.475-.833-2.012-.294-.294-.456-.685-.456-1.1v-6.91c0-3.691-2.837-6.733-6.445-7.06V0h-1.29v1.319c-3.608.326-6.445 3.368-6.445 7.06zm7.09 12.332c-.84 0-1.556-.539-1.822-1.29h3.645c-.266.751-.982 1.29-1.823 1.29zm5.801-12.332v6.909c0 .76.296 1.474.833 2.012.23.23.38.519.433.833H2.214c.054-.314.203-.604.433-.833.538-.538.833-1.252.833-2.012v-6.91c0-3.198 2.603-5.8 5.801-5.8 3.199 0 5.801 2.602 5.801 5.8z" transform="translate(-741 -867) translate(741 867) translate(3 1)"/>
                </g>
            </g>
        </g>
    </g>
</svg>
