<svg xmlns="http://www.w3.org/2000/svg" width="25" height="25" viewBox="0 0 25 25">
    <defs>
        <filter id="uc2zmzztta">
            <feColorMatrix in="SourceGraphic" values="0 0 0 0 0.233896 0 0 0 0 0.799507 0 0 0 0 0.629323 0 0 0 1.000000 0"/>
        </filter>
    </defs>
    <g fill="none" fill-rule="evenodd">
        <g>
            <g filter="url(#uc2zmzztta)" transform="translate(-668 -1028) translate(668.038 1028.033)">
                <g fill="#000" fill-rule="nonzero">
                    <path d="M6.042 13.908c-.528-.303-.886-.873-.886-1.525 0-2.693 2.19-4.883 4.883-4.883h2.012l.095-1.563H.745l.819 13.512c.018.31.275.551.584.551h3.596c-.369-.49-.588-1.099-.588-1.758 0-.76.485-1.408 1.161-1.653-.24-.368-.38-.806-.38-1.276 0-.472.14-.91.38-1.278-.19-.043-.296-.085-.275-.127zM6.445 4.766h5.86c.323 0 .586-.263.586-.586 0-.324-.263-.586-.586-.586H7.527l1.58-2.422h2.026c.323 0 .586-.262.586-.586 0-.324-.263-.586-.586-.586H8.789c-.198 0-.383.1-.49.266L6.127 3.594H.586c-.324 0-.586.262-.586.586 0 .323.262.586.586.586h5.859z" transform="translate(2 2)"/>
                    <path d="M6.328 12.383c0 .323.262.586.586.586h12.5c.324 0 .586-.263.586-.586 0-2.046-1.665-3.711-3.71-3.711h-6.25c-2.047 0-3.712 1.665-3.712 3.71zM8.281 14.14c-.647 0-1.172.525-1.172 1.172 0 .648.525 1.172 1.172 1.172h9.766c.647 0 1.172-.524 1.172-1.172 0-.647-.525-1.171-1.172-1.171H8.28zM19.414 17.656h-12.5c-.324 0-.586.263-.586.586 0 .97.789 1.758 1.758 1.758h10.156c.97 0 1.758-.789 1.758-1.758 0-.323-.262-.586-.586-.586z" transform="translate(2 2)"/>
                </g>
                <path d="M0 0H24V24H0z"/>
            </g>
        </g>
    </g>
</svg>
