<svg xmlns="http://www.w3.org/2000/svg" width="16" height="16" viewBox="0 0 16 16">
    <defs>
        <filter id="bwf28g55pa">
            <feColorMatrix in="SourceGraphic" values="0 0 0 0 0.125490 0 0 0 0 0.137255 0 0 0 0 0.149020 0 0 0 1.000000 0"/>
        </filter>
    </defs>
    <g fill="none" fill-rule="evenodd">
        <g filter="url(#bwf28g55pa)" transform="translate(-30 -442)">
            <g>
                <g fill="#47B896" fill-rule="nonzero">
                    <path d="M11.364 0H2.907C1.304 0 0 1.234 0 2.75v8c0 1.516 1.304 2.75 2.907 2.75h2.344l1.431 2.257c.205.323.701.325.907 0L9.02 13.5h2.343c1.603 0 2.907-1.234 2.907-2.75v-8c0-1.516-1.304-2.75-2.907-2.75zm.229 9.492l-1.121 1.06c-.315.298-.747.448-1.267.448-3.29 0-8.26-5.578-6.208-7.518l1.12-1.061c.207-.195.542-.196.748 0l2.056 1.944c.206.196.206.512 0 .707l-.989.936c.253.571 1.261 1.526 1.869 1.768l.989-.936c.207-.196.541-.194.747 0l2.056 1.945c.206.195.206.512 0 .707z" transform="translate(30 442) translate(.667)"/>
                    <path d="M8.108 8.354c-.47.372-1.156-.27-1.782-.862-.626-.593-1.51-1.243-1.032-1.706l1.032-1.017-1.849-1.712-1.049 1.044c-.232.22-.262.974 0 1.617.675 1.66 2.778 3.748 4.544 4.39.68.248 1.745.22 1.977 0l1.012-.975L9.12 7.378l-1.012.976z" transform="translate(30 442) translate(.667)"/>
                </g>
            </g>
        </g>
    </g>
</svg>
