<svg xmlns="http://www.w3.org/2000/svg" width="24" height="25" viewBox="0 0 24 25">
    <defs>
        <filter id="4d223b4ysa">
            <feColorMatrix in="SourceGraphic" values="0 0 0 0 0.233896 0 0 0 0 0.799507 0 0 0 0 0.629323 0 0 0 1.000000 0"/>
        </filter>
    </defs>
    <g fill="none" fill-rule="evenodd">
        <g>
            <g filter="url(#4d223b4ysa)" transform="translate(-708 -1028) translate(708 1028.033)">
                <path d="M0 0H24V24H0z"/>
                <g fill="#000" fill-rule="nonzero">
                    <path d="M2.353 1.176L5.882 1.176 5.882 2.353 2.353 2.353zM14.118 1.176L17.647 1.176 17.647 2.353 14.118 2.353z" transform="translate(2 3)"/>
                    <g transform="translate(2 3)">
                        <path d="M10.15 7.635L12.503 7.635 12.503 8.812 10.15 8.812z" transform="rotate(-14.481 11.326 8.224)"/>
                        <path d="M2.295 3.53C1.029 3.53 0 4.558 0 5.823v9.528c0 1.266 1.03 2.295 2.295 2.295h1.234V3.53H2.295zM15.294 3.53h-2.273l-.552-2.482C12.332.431 11.795 0 11.163 0H8.837c-.632 0-1.17.431-1.306 1.048l-.552 2.481H4.706v14.118h10.588V3.53zm-2.127 2.396l.883 3.417-4.556 1.178-.883-3.418 4.556-1.177zM8.679 1.303c.017-.074.082-.127.158-.127h2.326c.076 0 .141.053.158.127l.495 2.226H8.184l.495-2.226zm-.836 13.991c-1.081 0-1.96-.88-1.96-1.96 0-1.082.879-1.961 1.96-1.961s1.96.88 1.96 1.96c0 1.082-.879 1.961-1.96 1.961z"/>
                        <circle cx="7.843" cy="13.333" r="1"/>
                        <path d="M17.705 3.53h-1.234v14.117h1.234c1.266 0 2.295-1.03 2.295-2.295V5.824c0-1.265-1.03-2.295-2.295-2.295z"/>
                    </g>
                </g>
            </g>
        </g>
    </g>
</svg>
