<svg xmlns="http://www.w3.org/2000/svg" width="24" height="25" viewBox="0 0 24 25">
    <g fill="none" fill-rule="evenodd">
        <g>
            <g>
                <path d="M0 0H24V24H0z" transform="translate(-813 -1028) translate(813 1028.033) matrix(1 0 0 -1 0 24)"/>
                <path fill="#3CCCA0" d="M7.347 4.734l.193.002.54 3.513c.073.465.372.857.802 1.048.176.079.364.119.557.119.27 0 .531-.079.756-.227l1.301-.859v13.02H7.555c-.114 0-.223-.044-.304-.125-.08-.08-.125-.19-.124-.304l.037-9.002-2.406 9.755c-.055.224-.276.364-.501.317l-1.916-.395c-.111-.023-.209-.09-.271-.185-.063-.095-.084-.211-.06-.323L5.072 6.612c.17-.802.742-1.46 1.513-1.735l.187-.059c.251-.068.51-.095.767-.082zm9.113.002c.321-.016.645.03.954.14.77.276 1.344.935 1.513 1.736l3.064 14.476c.023.112.002.228-.06.323-.063.096-.16.162-.272.185l-1.915.395c-.225.047-.447-.093-.502-.317l-2.4-9.747.04 8.994c0 .114-.045.223-.126.304-.08.08-.189.126-.303.126h-3.949V8.331l1.301.858c.225.148.487.227.756.227.193 0 .381-.04.558-.119.43-.19.729-.583.8-1.048zM12 2c.742 0 1.432.064 2.009.173.039.007.077.016.116.026.931.238 1.53 1.147 1.383 2.098l-.585 3.798c-.019.124-.099.23-.213.28-.048.021-.098.031-.149.031-.07 0-.14-.02-.202-.06L12 6.789 9.642 8.346c-.06.04-.131.06-.202.06-.05 0-.101-.01-.149-.031-.114-.05-.194-.156-.213-.28l-.585-3.794c-.144-.94.431-1.836 1.346-2.092.05-.014.101-.026.152-.036C10.568 2.063 11.258 2 12 2zm0 2.173c-.1 0-.197 0-.294.003-.456.008-.883.035-1.258.077-.078.008-.146.06-.175.134-.029.074-.015.158.037.218l1.689 1.971 1.69-1.97c.051-.061.066-.145.037-.219-.03-.074-.097-.126-.176-.134-.375-.042-.802-.07-1.258-.077-.096-.002-.193-.003-.292-.003z" transform="translate(-813 -1028) translate(813 1028.033)"/>
            </g>
        </g>
    </g>
</svg>
