<?xml version="1.0" encoding="UTF-8"?>
<svg width="24px" height="24px" viewBox="0 0 24 24" version="1.1" xmlns="http://www.w3.org/2000/svg" xmlns:xlink="http://www.w3.org/1999/xlink">
    <title>79843082-10CC-469B-BF59-4F5F3FC2FF64</title>
    <defs>
        <filter id="filter-1">
            <feColorMatrix in="SourceGraphic" type="matrix" values="0 0 0 0 0.125490 0 0 0 0 0.137255 0 0 0 0 0.149020 0 0 0 1.000000 0"></feColorMatrix>
        </filter>
    </defs>
    <g id="browser" stroke="none" stroke-width="1" fill="none" fill-rule="evenodd">
        <g id="browser_Shopping_single-shop" transform="translate(-233.000000, -74.000000)">
            <g id="icon/bar-code" transform="translate(233.000000, 74.000000)">
                <rect id="icon-bg" x="0" y="0" width="24" height="24"></rect>
                <g filter="url(#filter-1)" id="Group-6">
                    <g>
                        <g id="Group-4" transform="translate(1.000000, 1.000000)" stroke="#FFFFFF" stroke-linecap="round" stroke-linejoin="round" stroke-width="2">
                            <g id="Group-3">
                                <polyline id="Path-5" points="0 18 0 22 4 22"></polyline>
                                <polyline id="Path-5-Copy" transform="translate(20.000000, 20.000000) rotate(-90.000000) translate(-20.000000, -20.000000) " points="18 18 18 22 22 22"></polyline>
                                <polyline id="Path-5-Copy-3" transform="translate(2.000000, 2.000000) rotate(-270.000000) translate(-2.000000, -2.000000) " points="0 -6.43929354e-15 0 4 4 4"></polyline>
                                <polyline id="Path-5-Copy-2" transform="translate(20.000000, 2.000000) rotate(-180.000000) translate(-20.000000, -2.000000) " points="18 -6.43929354e-15 18 4 22 4"></polyline>
                            </g>
                        </g>
                        <rect id="Rectangle" stroke="#FFFFFF" fill="#202326" x="4" y="4.5" width="1" height="15" rx="0.5"></rect>
                        <rect id="Rectangle-Copy-5" stroke="#FFFFFF" fill="#202326" x="7" y="4.5" width="1" height="12" rx="0.5"></rect>
                        <rect id="Rectangle-Copy-5" stroke="#FFFFFF" fill="#202326" x="10" y="4.5" width="1" height="12" rx="0.5"></rect>
                        <rect id="Rectangle-Copy-6" stroke="#FFFFFF" fill="#202326" x="13" y="4.5" width="1" height="15" rx="0.5"></rect>
                        <circle id="Oval" stroke="#FFFFFF" fill="#D8D8D8" cx="7.5" cy="19" r="1"></circle>
                        <circle id="Oval" stroke="#FFFFFF" fill="#D8D8D8" cx="10.5" cy="19" r="1"></circle>
                        <circle id="Oval" stroke="#FFFFFF" fill="#D8D8D8" cx="19.5" cy="19" r="1"></circle>
                        <rect id="Rectangle-Copy-6" stroke="#FFFFFF" fill="#202326" x="16" y="4.5" width="1" height="15" rx="0.5"></rect>
                        <rect id="Rectangle-Copy-6" stroke="#FFFFFF" fill="#202326" x="19" y="4.5" width="1" height="12" rx="0.5"></rect>
                    </g>
                </g>
            </g>
        </g>
    </g>
</svg>