<svg xmlns="http://www.w3.org/2000/svg" width="24" height="24" viewBox="0 0 24 24">
    <g fill="none" fill-rule="evenodd">
        <g>
            <g>
                <path d="M0 0H24V24H0z" transform="translate(-452 -676) translate(452 676)"/>
                <path fill="#202326" fill-rule="nonzero" d="M14.685 5.83c-2.44-2.44-6.414-2.44-8.855 0-2.44 2.442-2.44 6.414 0 8.855 2.174 2.173 5.56 2.406 7.999.71.051.242.169.474.358.663l3.554 3.554c.518.517 1.355.517 1.87 0 .518-.517.518-1.354 0-1.87l-3.554-3.556c-.188-.187-.42-.305-.663-.356 1.698-2.44 1.465-5.825-.709-8zm-1.122 7.733c-1.823 1.822-4.789 1.822-6.61 0-1.822-1.822-1.822-4.787 0-6.61 1.821-1.821 4.787-1.821 6.61 0 1.822 1.823 1.822 4.788 0 6.61z" transform="translate(-452 -676) translate(452 676)"/>
            </g>
        </g>
    </g>
</svg>
