<svg xmlns="http://www.w3.org/2000/svg" width="18" height="20" viewBox="0 0 18 20">
    <g fill="none" fill-rule="evenodd">
        <g fill="#202326" fill-rule="nonzero">
            <g>
                <path d="M17.4 22c-1.985 0-3.6-1.577-3.6-3.516 0-.06.003-.12.007-.179l-4.413-2.822c-.666.406-1.416.619-2.194.619-2.316 0-4.2-1.84-4.2-4.102 0-2.262 1.884-4.102 4.2-4.102.778 0 1.528.213 2.194.62l4.413-2.823c-.004-.058-.007-.118-.007-.18C13.8 3.578 15.415 2 17.4 2S21 3.577 21 5.516c0 1.938-1.615 3.515-3.6 3.515-.572 0-1.13-.132-1.636-.385l-4.405 2.817c.027.185.041.363.041.537 0 .174-.014.352-.041.537l4.405 2.817c.506-.253 1.064-.385 1.636-.385 1.985 0 3.6 1.577 3.6 3.515C21 20.423 19.385 22 17.4 22z" transform="translate(-279 -428) translate(276 426)"/>
            </g>
        </g>
    </g>
</svg>
