<svg xmlns="http://www.w3.org/2000/svg" width="19" height="20" viewBox="0 0 19 20">
    <g fill="none" fill-rule="evenodd">
        <g fill="#47B896">
            <g>
                <path d="M18.29 9.643c.39.274.858.437 1.352.437v9.996h.403c.528 0 .955.43.955.962 0 .531-.427.962-.954.962H2.955C2.428 22 2 21.57 2 21.038c0-.531.428-.962.955-.962h.402V10.08l.185-.007c.426-.035.827-.19 1.168-.43.262.186.564.324.898.39.155.032.311.047.465.047.102 0 .202-.011.301-.024v7.435c0 .425.342.769.763.769h8.726c.421 0 .763-.345.763-.769v-7.435c.1.013.2.024.301.024.155 0 .31-.015.464-.046.334-.067.636-.205.899-.39zM18.17 2c.715 0 1.344.472 1.548 1.162l1.225 4.133c.214.723-.194 1.485-.912 1.702-.13.038-.26.057-.39.057-.583 0-1.123-.383-1.299-.977l-.071-.24c-.064.576-.483 1.071-1.078 1.19-.089.019-.178.027-.266.027-.634 0-1.201-.45-1.33-1.101l-.033-.167c-.046.65-.549 1.194-1.215 1.261-.046.005-.091.007-.137.007-.688 0-1.278-.527-1.348-1.233l-.01-.101c-.019.74-.616 1.334-1.354 1.334-.738 0-1.335-.594-1.354-1.334l-.01.101c-.07.706-.66 1.233-1.348 1.233-.046 0-.091-.002-.137-.007-.666-.067-1.168-.61-1.215-1.261l-.033.167c-.129.65-.696 1.101-1.33 1.101-.088 0-.177-.008-.266-.026-.595-.12-1.014-.615-1.078-1.191l-.071.24c-.176.594-.716.977-1.3.977-.129 0-.26-.019-.389-.057-.718-.217-1.126-.979-.912-1.702l1.225-4.133C3.486 2.472 4.115 2 4.829 2z" transform="translate(-745 -748) translate(743 746)"/>
            </g>
        </g>
    </g>
</svg>
