<svg xmlns="http://www.w3.org/2000/svg" width="24" height="24" viewBox="0 0 24 24">
    <g fill="none" fill-rule="evenodd">
        <g>
            <g>
                <path d="M0 0H24V24H0z" transform="translate(-936 -707) translate(936 707)"/>
                <path fill="#797B7D" fill-rule="nonzero" stroke="#797B7D" stroke-width=".2" d="M4.443 8c.244 0 .443-.198.443-.443V4.886h2.671c.245 0 .443-.199.443-.443C8 4.198 7.802 4 7.557 4H4.443C4.198 4 4 4.198 4 4.443v3.114c0 .245.198.443.443.443zM4.443 20h3.114c.245 0 .443-.198.443-.443 0-.244-.198-.443-.443-.443H4.886v-2.671c0-.245-.199-.443-.443-.443-.245 0-.443.198-.443.443v3.114c0 .245.198.443.443.443zM19.557 16c-.244 0-.443.198-.443.443v2.671h-2.671c-.245 0-.443.199-.443.443 0 .245.198.443.443.443h3.114c.245 0 .443-.198.443-.443v-3.114c0-.245-.198-.443-.443-.443zM19.557 4h-3.114c-.245 0-.443.198-.443.443 0 .244.198.443.443.443h2.671v2.671c0 .245.199.443.443.443.245 0 .443-.198.443-.443V4.443c0-.245-.198-.443-.443-.443z" transform="translate(-936 -707) translate(936 707)"/>
                <path fill="#797B7D" d="M11.495 6c.279 0 .505.226.505.505v4.99c0 .279-.226.505-.505.505h-4.99C6.226 12 6 11.774 6 11.495v-4.99C6 6.226 6.226 6 6.505 6zM9.513 8.119l-.691.69-.335-.334c-.197-.198-.517-.198-.714 0-.198.197-.198.517 0 .714l.692.692c.197.198.517.198.714 0l1.048-1.048c.198-.197.198-.517 0-.714-.197-.198-.517-.198-.714 0z" transform="translate(-936 -707) translate(936 707)"/>
                <path fill="#797B7D" d="M11.495 12c.279 0 .505.226.505.505v4.99c0 .279-.226.505-.505.505h-4.99C6.226 18 6 17.774 6 17.495v-4.99c0-.279.226-.505.505-.505zm-1.982 2.119l-.691.69-.335-.334c-.197-.198-.517-.198-.714 0-.198.197-.198.517 0 .714l.692.692c.197.198.517.198.714 0l1.048-1.048c.198-.197.198-.517 0-.714-.197-.198-.517-.198-.714 0z" transform="translate(-936 -707) translate(936 707)"/>
                <path fill="#797B7D" fill-rule="nonzero" stroke="#797B7D" stroke-width=".2" d="M12 7.5c0 .276.22.5.49.5h5.02c.27 0 .49-.224.49-.5s-.22-.5-.49-.5h-5.02c-.27 0-.49.224-.49.5zM13.396 10h1.208c.219 0 .396-.224.396-.5s-.177-.5-.396-.5h-1.208c-.219 0-.396.224-.396.5s.177.5.396.5zM17.617 9h-1.234c-.212 0-.383.224-.383.5s.171.5.383.5h1.234c.212 0 .383-.224.383-.5s-.171-.5-.383-.5zM13.425 17h2.15c.235 0 .425-.224.425-.5s-.19-.5-.425-.5h-2.15c-.235 0-.425.224-.425.5s.19.5.425.5z" transform="translate(-936 -707) translate(936 707)"/>
                <path fill="#797B7D" fill-rule="nonzero" stroke="#797B7D" stroke-width=".2" d="M17.38 16h-.76c-.343 0-.62.224-.62.5s.277.5.62.5h.76c.343 0 .62-.224.62-.5s-.277-.5-.62-.5zM13.327 15h.346c.18 0 .327-.224.327-.5s-.147-.5-.327-.5h-.346c-.18 0-.327.224-.327.5s.147.5.327.5zM17.585 14h-2.17c-.23 0-.415.224-.415.5s.186.5.415.5h2.17c.23 0 .415-.224.415-.5s-.186-.5-.415-.5z" transform="translate(-936 -707) translate(936 707)"/>
            </g>
        </g>
    </g>
</svg>
