<svg xmlns="http://www.w3.org/2000/svg" width="16" height="16" viewBox="0 0 16 16">
    <g fill="none" fill-rule="evenodd">
        <g fill="#000" fill-rule="nonzero">
            <g>
                <path d="M0 7.531h3.325c.03-1.173.174-2.279.413-3.281H.973C.443 5.238.069 6.351 0 7.531zM3.325 8.469H0c.07 1.18.443 2.293.973 3.281h2.765c-.24-1.002-.383-2.108-.413-3.281zM7.531 7.531V4.25H4.707c-.256.993-.411 2.109-.445 3.281h3.27zM7.531 3.313V0C6.505.287 5.596 1.598 4.995 3.313h2.536zM7.531 16v-3.313H4.995c.6 1.715 1.51 3.026 2.536 3.313zM8.469 0v3.313h2.536C10.405 1.597 9.495.287 8.469 0zM11.738 7.531c-.034-1.172-.189-2.288-.445-3.281H8.469v3.281h3.27zM7.531 8.469h-3.27c.035 1.172.19 2.288.446 3.281h2.824V8.469zM12 3.313h2.43c-.97-1.328-2.336-2.45-3.928-2.977.612.722 1.124 1.807 1.498 2.977zM4 12.688H1.57c.97 1.327 2.336 2.448 3.928 2.976-.612-.722-1.124-1.807-1.498-2.976zM4 3.313c.374-1.17.886-2.255 1.498-2.977C3.906.864 2.54 1.986 1.57 3.313H4zM12 12.688c-.374 1.169-.886 2.254-1.498 2.976 1.592-.528 2.958-1.65 3.928-2.976H12zM8.469 8.469v3.281h2.824c.256-.993.411-2.109.445-3.281h-3.27zM12.262 4.25c.24 1.002.383 2.108.413 3.281H16c-.07-1.18-.443-2.293-.973-3.281h-2.765zM8.469 12.688V16c1.026-.287 1.935-1.598 2.536-3.313H8.469zM16 8.469h-3.325c-.03 1.173-.174 2.279-.413 3.281h2.765c.53-.988.904-2.101.973-3.281z" transform="translate(-30 -277) translate(30 277)"/>
            </g>
        </g>
    </g>
</svg>
